<?xml version="1.0" encoding="UTF-8"?> <svg xmlns="http://www.w3.org/2000/svg" width="192" height="60" viewBox="0 0 192 60" fill="none"><mask id="mask0_4136_59" style="mask-type:luminance" maskUnits="userSpaceOnUse" x="0" y="0" width="192" height="60"><path d="M191.554 0.636963H0.325195V59.8677H191.554V0.636963Z" fill="#0E1726"></path></mask><g mask="url(#mask0_4136_59)"><path d="M114.747 52.9048V51.9986C114.747 51.9136 114.816 51.8447 114.901 51.8447H119.775C119.86 51.8447 119.929 51.9136 119.929 51.9986V52.9048C119.929 52.9898 119.86 53.0587 119.775 53.0587H118.1C118.015 53.0587 117.946 53.1276 117.946 53.2125V58.7843C117.946 58.8693 117.876 58.9382 117.791 58.9382H116.937C116.851 58.9382 116.783 58.8693 116.783 58.7843V53.2125C116.783 53.1276 116.713 53.0587 116.629 53.0587H114.901C114.816 53.0587 114.747 52.9898 114.747 52.9048Z" fill="#0E1726"></path><path d="M151.198 52.9048V51.9986C151.198 51.9136 151.268 51.8447 151.352 51.8447H156.226C156.311 51.8447 156.381 51.9136 156.381 51.9986V52.9048C156.381 52.9898 156.311 53.0587 156.226 53.0587H154.551C154.466 53.0587 154.397 53.1276 154.397 53.2125V58.7843C154.397 58.8693 154.328 58.9382 154.242 58.9382H153.388C153.303 58.9382 153.234 58.8693 153.234 58.7843V53.2125C153.234 53.1276 153.165 53.0587 153.08 53.0587H151.352C151.268 53.0587 151.198 52.9898 151.198 52.9048Z" fill="#0E1726"></path><path d="M84.9697 25.8111V40.5839C84.9697 40.8388 85.1771 41.0454 85.4324 41.0454H87.0455C87.2999 41.0454 87.5058 40.8411 87.5081 40.5877L87.5883 30.6481L91.389 37.2361C91.4584 37.3553 91.5856 37.4288 91.7237 37.4288H93.3198C93.4555 37.4288 93.5812 37.3575 93.6506 37.2412L97.5924 30.6481V40.5839C97.5924 40.8388 97.799 41.0454 98.055 41.0454H99.443C99.6982 41.0454 99.9056 40.8388 99.9056 40.5839V25.8111C99.9056 25.5987 99.7329 25.4265 99.5201 25.4265H97.8144C97.6772 25.4265 97.55 25.4997 97.4806 25.6185L92.5186 34.1788L87.6153 25.6203C87.5467 25.5004 87.4195 25.4265 87.2807 25.4265H85.3553C85.1424 25.4265 84.9697 25.5987 84.9697 25.8111Z" fill="#0E1726"></path><path d="M72.3916 52.1916V58.5862C72.3916 58.6965 72.4813 58.786 72.5919 58.786H73.29C73.4 58.786 73.4894 58.6975 73.4902 58.5878L73.525 54.2854L75.1703 57.137C75.2 57.1886 75.2552 57.2205 75.3149 57.2205H76.0059C76.0647 57.2205 76.1191 57.1896 76.1492 57.1392L77.8557 54.2854V58.5862C77.8557 58.6965 77.9451 58.786 78.0554 58.786H78.7216C78.8319 58.786 78.9213 58.6965 78.9213 58.5862V52.1916C78.9213 52.0997 78.8473 52.0251 78.7547 52.0251H77.9513C77.8919 52.0251 77.8372 52.0568 77.8071 52.1083L75.659 55.8137L73.5367 52.109C73.5071 52.0571 73.4517 52.0251 73.3919 52.0251H72.5585C72.4663 52.0251 72.3916 52.0997 72.3916 52.1916Z" fill="#0E1726"></path><path d="M66.7109 1.84482V17.1153C66.7109 17.3276 66.8835 17.4999 67.0965 17.4999H68.8649C69.0779 17.4999 69.2504 17.3276 69.2504 17.1153V10.954H75.487C75.6999 10.954 75.8726 10.7818 75.8726 10.5693V8.75757C75.8726 8.54518 75.6999 8.37294 75.487 8.37294H69.2504V4.42518C69.2504 4.21277 69.4231 4.04057 69.636 4.04057H76.5342C76.7471 4.04057 76.9198 3.86837 76.9198 3.65595V1.84482C76.9198 1.63241 76.7471 1.46021 76.5342 1.46021H67.0965C66.8835 1.46021 66.7109 1.63241 66.7109 1.84482Z" fill="#0E1726"></path><path d="M143.086 1.52026H140.675C140.405 1.52026 140.219 1.78945 140.314 2.04108L146.199 17.5437H148.777L154.582 2.03946C154.676 1.78809 154.49 1.52026 154.221 1.52026H152.207C152.043 1.52026 151.897 1.62398 151.843 1.77869L147.786 13.4341H147.369L143.452 1.78257C143.399 1.62586 143.252 1.52026 143.086 1.52026Z" fill="#0E1726"></path><path d="M36.807 4.12842C47.0276 4.12842 55.3131 12.3939 55.3131 22.59V39.7353C55.3131 49.9314 47.0276 58.1969 36.807 58.1969H19.1203C8.89973 58.1969 0.614258 49.9314 0.614258 39.7353V22.59C0.614259 12.3939 8.89973 4.12842 19.1203 4.12842H36.807ZM19.9094 12.4637C13.9475 12.4637 9.11425 17.2853 9.11425 23.233V39.4229C9.11425 45.3706 13.9475 49.9945 19.9094 49.9945H36.1143C42.0763 49.9945 46.9095 45.3706 46.9095 39.4229V23.233C46.9095 17.2853 42.0763 12.4637 36.1143 12.4637H19.9094ZM17.6021 33.5747C18.0656 33.0553 18.8481 33.1065 19.3635 33.5747C21.1958 35.2396 24.5632 37.4452 28.3869 37.4457C30.1621 37.3707 34.051 36.5077 36.7792 33.7506C37.3031 33.2211 38.1905 33.187 38.6738 33.7536L40.8808 36.3407C41.5515 37.127 41.6233 38.2711 40.9057 39.015C38.7553 41.2433 34.4654 44.116 28.3869 44.0533C24.2339 44.0533 20.8994 43.6323 15.6354 39.169C14.6804 38.3591 14.6521 37.1071 15.4853 36.173L17.6021 33.5747Z" fill="#0E1726"></path><path d="M17.6017 33.5747C18.0652 33.0553 18.8477 33.1065 19.3631 33.5747C21.1953 35.2396 24.5628 37.4452 28.3865 37.4457C30.1617 37.3707 34.0506 36.5077 36.7788 33.7506C37.3027 33.2211 38.1901 33.187 38.6734 33.7536L40.8804 36.3407C41.551 37.127 41.6229 38.2711 40.9053 39.015C38.7549 41.2433 34.465 44.116 28.3865 44.0533C24.2335 44.0533 20.899 43.6323 15.635 39.169C14.68 38.3591 14.6517 37.1071 15.4849 36.173L17.6017 33.5747Z" fill="#0E1726"></path><path d="M93.5204 1.27393C96.661 1.27393 99.2071 3.81413 99.2071 6.94762V12.2168C99.2071 15.3503 96.661 17.8905 93.5204 17.8905H88.0842C84.9436 17.8905 82.3975 15.3503 82.3975 12.2168V6.94762C82.3975 3.81413 84.9436 1.27393 88.0842 1.27393H93.5204ZM88.3271 3.83558C86.495 3.83558 85.0091 5.31736 85.0091 7.14523V12.1207C85.0091 13.9487 86.495 15.3697 88.3271 15.3697H93.3068C95.1396 15.3697 96.6247 13.9487 96.6247 12.1207V7.14523C96.6247 5.31736 95.1396 3.83558 93.3068 3.83558H88.3271ZM87.6177 10.3235C87.7603 10.1639 88.0009 10.1796 88.159 10.3235C88.7219 10.8351 89.7575 11.513 90.9326 11.5131C91.4777 11.49 92.6729 11.2248 93.5111 10.3775C93.6723 10.2148 93.9452 10.2043 94.094 10.3784L94.7718 11.1735C94.9785 11.4152 95.0001 11.7668 94.7795 11.9954C94.1187 12.6802 92.8002 13.5631 90.9326 13.5438C89.6557 13.5438 88.6309 13.4144 87.0132 12.0427C86.7202 11.7939 86.7109 11.4091 86.9677 11.122L87.6177 10.3235Z" fill="#0E1726"></path><path d="M112.435 1.52637C114.989 1.52654 117.061 3.59284 117.061 6.14175V7.65918C117.061 9.81415 114.978 10.7473 114.184 10.7834C113.688 10.8058 113.962 11.2228 114.067 11.4182L117.44 16.9395C117.596 17.1957 117.411 17.5238 117.111 17.5239H114.748L111.386 11.6692C111.249 11.4298 110.994 11.2822 110.717 11.2822H108.367C108.154 11.2822 107.981 11.4544 107.981 11.6668V17.1393C107.981 17.3517 107.808 17.5239 107.595 17.5239H105.488C105.275 17.5239 105.103 17.3518 105.103 17.1393V2.2956C105.103 1.87076 105.448 1.52637 105.874 1.52637H112.435ZM107.964 4.22468V8.87008H111.961C113.247 8.87008 114.289 7.83023 114.289 6.54739C114.289 5.2646 113.247 4.22468 111.961 4.22468H107.964Z" fill="#0E1726"></path><path d="M170.123 51.6765C171.293 51.6766 172.241 52.6227 172.241 53.79V54.4849C172.241 55.4717 171.287 55.899 170.924 55.9155C170.697 55.9258 170.822 56.1167 170.87 56.2062L172.415 58.7346C172.486 58.8519 172.401 59.0021 172.264 59.0022H171.182L169.643 56.3211C169.58 56.2115 169.463 56.144 169.336 56.144H168.26C168.163 56.144 168.083 56.2228 168.083 56.3201V58.826C168.083 58.9234 168.005 59.0022 167.907 59.0022H166.942C166.844 59.0022 166.766 58.9234 166.766 58.826V52.0287C166.766 51.8342 166.924 51.6765 167.118 51.6765H170.123ZM168.076 52.9121V55.0394H169.906C170.495 55.0394 170.972 54.5632 170.972 53.9757C170.972 53.3883 170.495 52.9121 169.906 52.9121H168.076Z" fill="#0E1726"></path><path d="M185.766 1.52637C188.321 1.52654 190.392 3.59284 190.392 6.14175V7.65918C190.392 9.81415 188.309 10.7473 187.516 10.7834C187.02 10.8058 187.293 11.2228 187.398 11.4182L190.771 16.9395C190.927 17.1957 190.742 17.5238 190.442 17.5239H188.079L184.718 11.6692C184.581 11.4298 184.325 11.2822 184.049 11.2822H181.698C181.486 11.2822 181.313 11.4544 181.313 11.6668V17.1393C181.313 17.3517 181.14 17.5239 180.927 17.5239H178.819C178.606 17.5239 178.434 17.3518 178.434 17.1393V2.2956C178.434 1.87076 178.779 1.52637 179.205 1.52637H185.766ZM181.295 4.22468V8.87008H185.292C186.579 8.87008 187.62 7.83023 187.62 6.54739C187.62 5.2646 186.579 4.22468 185.292 4.22468H181.295Z" fill="#0E1726"></path><path d="M125.036 1.48438H134.181C134.394 1.48438 134.566 1.65657 134.566 1.86898V3.7225C134.566 3.93491 134.394 4.10711 134.181 4.10711H127.025V8.11901H132.848C133.275 8.11901 133.619 8.4633 133.619 8.88815V9.94124C133.619 10.3661 133.275 10.7105 132.848 10.7105H127.025V14.822H134.384C134.596 14.822 134.769 14.9942 134.769 15.2066V17.1784C134.769 17.3908 134.596 17.563 134.384 17.563H125.036C124.61 17.563 124.265 17.2186 124.265 16.7938V2.2536C124.265 1.82877 124.61 1.48438 125.036 1.48438Z" fill="#0E1726"></path><path d="M135.554 25.1863H144.699C144.912 25.1863 145.084 25.3584 145.084 25.5709V27.4244C145.084 27.6368 144.912 27.809 144.699 27.809H137.544V31.8208H143.367C143.793 31.8208 144.138 32.1652 144.138 32.59V33.6431C144.138 34.068 143.793 34.4124 143.367 34.4124H137.544V38.5239H144.901C145.114 38.5239 145.287 38.696 145.287 38.9085V40.8803C145.287 41.0927 145.114 41.2649 144.901 41.2649H135.554C135.129 41.2649 134.783 40.9205 134.783 40.4957V25.9555C134.783 25.5307 135.129 25.1863 135.554 25.1863Z" fill="#0E1726"></path><path d="M161.5 1.48438H170.645C170.857 1.48438 171.03 1.65657 171.03 1.86898V3.7225C171.03 3.93491 170.857 4.10711 170.645 4.10711H163.49V8.11901H169.313C169.739 8.11901 170.084 8.4633 170.084 8.88815V9.94124C170.084 10.3661 169.739 10.7105 169.313 10.7105H163.49V14.822H170.847C171.06 14.822 171.233 14.9942 171.233 15.2066V17.1784C171.233 17.3908 171.06 17.563 170.847 17.563H161.5C161.074 17.563 160.729 17.2186 160.729 16.7938V2.2536C160.729 1.82877 161.074 1.48438 161.5 1.48438Z" fill="#0E1726"></path><path d="M159.475 51.8628H163.536C163.631 51.8628 163.707 51.9393 163.707 52.0336V52.8566C163.707 52.9509 163.631 53.0273 163.536 53.0273H160.359V54.8087H162.944C163.133 54.8087 163.287 54.9616 163.287 55.1503V55.6179C163.287 55.8065 163.133 55.9594 162.944 55.9594H160.359V57.7851H163.626C163.72 57.7851 163.797 57.8616 163.797 57.9559V58.8314C163.797 58.9257 163.72 59.0022 163.626 59.0022H159.475C159.286 59.0022 159.133 58.8493 159.133 58.6606V52.2043C159.133 52.0156 159.286 51.8628 159.475 51.8628Z" fill="#0E1726"></path><path d="M135.3 51.8628H139.361C139.455 51.8628 139.532 51.9393 139.532 52.0336V52.8566C139.532 52.9509 139.455 53.0273 139.361 53.0273H136.183V54.8087H138.769C138.958 54.8087 139.112 54.9616 139.112 55.1503V55.6179C139.112 55.8065 138.958 55.9594 138.769 55.9594H136.183V57.7851H139.45C139.545 57.7851 139.622 57.8616 139.622 57.9559V58.8314C139.622 58.9257 139.545 59.0022 139.45 59.0022H135.3C135.111 59.0022 134.958 58.8493 134.958 58.6606V52.2043C134.958 52.0156 135.111 51.8628 135.3 51.8628Z" fill="#0E1726"></path><path d="M71.2466 24.99C75.3191 24.8203 77.4212 27.3632 77.9633 28.6559L75.7085 29.9204C74.9085 28.3575 72.9029 27.6203 72.0001 27.4472C70.8398 27.2739 69.9994 27.5644 69.4194 28.0002C68.4654 28.7169 68.277 30.2495 69.2424 30.9508C70.2194 31.6606 71.8068 31.7606 72.771 31.874C77.4374 32.4227 77.9633 35.3576 77.9633 36.7788C77.8168 40.6678 73.8457 41.5791 71.8785 41.5486C67.9035 41.7777 65.7609 38.8525 65.1865 37.3613L67.8593 36.1802C69.2225 39.4442 72.4932 39.1746 73.9582 38.6318C76.039 37.7585 75.4339 35.987 74.9224 35.4375C74.161 34.6196 71.0168 34.1511 69.5399 34.0191C66.021 33.3099 65.5698 30.3698 65.7841 28.9884C66.104 25.9212 69.559 25.0448 71.2466 24.99Z" fill="#0E1726"></path><path d="M157.277 24.99C161.349 24.8203 163.452 27.3632 163.994 28.6559L161.738 29.9204C160.939 28.3575 158.933 27.6203 158.03 27.4472C156.87 27.2739 156.029 27.5644 155.449 28.0002C154.495 28.7169 154.307 30.2495 155.272 30.9508C156.25 31.6606 157.837 31.7606 158.801 31.874C163.468 32.4227 163.994 35.3576 163.994 36.7788C163.846 40.6678 159.875 41.5791 157.908 41.5486C153.933 41.7777 151.79 38.8525 151.217 37.3613L153.889 36.1802C155.253 39.4442 158.523 39.1746 159.988 38.6318C162.069 37.7585 161.464 35.987 160.953 35.4375C160.191 34.6196 157.047 34.1511 155.57 34.0191C152.051 33.3099 151.6 30.3698 151.814 28.9884C152.134 25.9212 155.589 25.0448 157.277 24.99Z" fill="#0E1726"></path><path d="M107.523 25.8111C107.523 25.5987 107.696 25.4265 107.909 25.4265H110.054C110.267 25.4265 110.44 25.5987 110.44 25.8111V40.6608C110.44 40.8733 110.267 41.0454 110.054 41.0454H107.909C107.696 41.0454 107.523 40.8733 107.523 40.6608V25.8111Z" fill="#0E1726"></path><path d="M67.8008 52.1916C67.8008 52.0997 67.8755 52.0251 67.9676 52.0251H68.8959C68.9882 52.0251 69.0629 52.0997 69.0629 52.1916V58.6195C69.0629 58.7115 68.9882 58.786 68.8959 58.786H67.9676C67.8755 58.786 67.8008 58.7115 67.8008 58.6195V52.1916Z" fill="#0E1726"></path><path d="M118.355 40.4122V25.8761C118.355 25.6212 118.563 25.4146 118.818 25.4146H120.576C120.831 25.4146 121.039 25.6212 121.039 25.8761V37.8448C121.039 38.1847 121.315 38.4603 121.656 38.4603H127.63C127.885 38.4603 128.093 38.6669 128.093 38.9219V40.566C128.093 40.8209 127.885 41.0275 127.63 41.0275H118.972C118.632 41.0275 118.355 40.752 118.355 40.4122Z" fill="#0E1726"></path><path d="M90.7109 58.6833V52.0552C90.7109 51.939 90.805 51.8447 90.9214 51.8447H91.7234C91.8398 51.8447 91.9339 51.939 91.9339 52.0552V57.5127C91.9339 57.6677 92.0603 57.7933 92.2153 57.7933H94.9396C95.056 57.7933 95.1508 57.8876 95.1508 58.0038V58.7535C95.1508 58.8697 95.056 58.964 94.9396 58.964H90.9924C90.8366 58.964 90.7109 58.8383 90.7109 58.6833Z" fill="#0E1726"></path><path d="M85.6876 52.0251C86.7517 52.0251 87.6153 52.8861 87.6153 53.9482V54.3598C87.6153 55.422 86.7517 56.2829 85.6876 56.2829H83.7815C83.6959 56.2829 83.6273 56.3518 83.6273 56.4368V58.8008C83.6273 58.8858 83.5579 58.9546 83.473 58.9546L82.7382 58.9919C82.6526 58.9919 82.584 58.9231 82.584 58.8381V52.2163C82.584 52.1313 82.6526 52.0625 82.7382 52.0625L85.6876 52.0251ZM83.7391 53.0528C83.6543 53.0528 83.5849 53.1217 83.5849 53.2066V55.2066C83.5849 55.2916 83.6543 55.3605 83.7391 55.3605H85.2674C85.9058 55.3605 86.424 54.8439 86.424 54.2066C86.424 53.5694 85.9058 53.0528 85.2674 53.0528H83.7391Z" fill="#0E1726"></path><path d="M100.755 51.8269L103.626 59.0039H102.345L101.635 57.3414H99.0787L98.4156 59.0039H97.0361L100.042 51.8269H100.755ZM99.4157 56.2191H101.457L100.49 53.8761H100.201L99.4157 56.2191Z" fill="#0E1726"></path><path d="M106.367 58.7841V51.9885C106.367 51.9035 106.437 51.8347 106.521 51.8347L106.97 51.8269C107.02 51.8269 107.068 51.8517 107.097 51.8931L110.284 56.4869C110.314 56.5284 110.361 56.5532 110.412 56.5532H110.435C110.519 56.5532 110.589 56.4843 110.589 56.3994V51.9807C110.589 51.8957 110.657 51.8269 110.743 51.8269H111.436C111.522 51.8269 111.591 51.8957 111.591 51.9807V58.7764C111.591 58.8614 111.522 58.9302 111.436 58.9302H110.793C110.743 58.9302 110.696 58.9061 110.668 58.8654L107.595 54.5467C107.572 54.5144 107.534 54.4951 107.495 54.4951C107.427 54.4951 107.371 54.55 107.371 54.6177V58.7764C107.371 58.8614 107.303 58.9302 107.217 58.9302L106.521 58.938C106.437 58.938 106.367 58.8691 106.367 58.7841Z" fill="#0E1726"></path><path d="M142.704 58.7841V51.9885C142.704 51.9035 142.773 51.8347 142.858 51.8347L143.383 51.8269C143.434 51.8269 143.481 51.8517 143.509 51.8931L146.698 56.4869C146.726 56.5284 146.773 56.5532 146.824 56.5532H146.847C146.933 56.5532 147.001 56.4843 147.001 56.3994V51.9807C147.001 51.8957 147.071 51.8269 147.156 51.8269H147.957C148.042 51.8269 148.112 51.8957 148.112 51.9807V58.7764C148.112 58.8614 148.042 58.9302 147.957 58.9302H147.206C147.156 58.9302 147.109 58.9061 147.08 58.8654L144.007 54.5467C143.984 54.5144 143.947 54.4951 143.907 54.4951C143.839 54.4951 143.784 54.55 143.784 54.6177V58.7764C143.784 58.8614 143.715 58.9302 143.629 58.9302L142.858 58.938C142.773 58.938 142.704 58.8691 142.704 58.7841Z" fill="#0E1726"></path><path d="M129.186 52.9063C130.344 52.9063 130.906 53.83 130.996 54.2726L132.103 53.9407C131.982 53.4945 131.742 53.023 131.562 52.8296C130.934 51.996 129.622 51.7038 128.936 51.7617C127.314 51.8152 126.544 53.3517 126.47 54.0135V56.6714C126.43 58.7978 128.171 59.2945 129.078 59.2945C130.858 59.2945 131.827 58.2004 132.095 57.6062L131.017 57.078C130.419 58.0133 129.559 58.1482 129.197 58.1199C128.01 58.0444 127.678 57.3106 127.583 56.8233V54.2012C127.613 53.1448 128.653 52.9233 129.186 52.9063Z" fill="#0E1726"></path></g></svg>